<svg width="16" height="20" viewBox="0 0 16 20" fill="none" xmlns="http://www.w3.org/2000/svg">
<path d="M4.25003 15.75H11.75V14.25H4.25003V15.75ZM4.25003 11.75H11.75V10.25H4.25003V11.75ZM2.30773 19.5C1.80259 19.5 1.37503 19.325 1.02503 18.975C0.675027 18.625 0.500027 18.1974 0.500027 17.6923V2.30773C0.500027 1.8026 0.675027 1.37503 1.02503 1.02503C1.37503 0.675031 1.80259 0.500031 2.30773 0.500031H10.25L15.5 5.74998V17.6923C15.5 18.1974 15.325 18.625 14.975 18.975C14.625 19.325 14.1974 19.5 13.6923 19.5H2.30773ZM9.50003 6.49998V2.00001H2.30773C2.23079 2.00001 2.16027 2.03206 2.09615 2.09616C2.03205 2.16027 2 2.2308 2 2.30773V17.6923C2 17.7692 2.03205 17.8397 2.09615 17.9039C2.16027 17.968 2.23079 18 2.30773 18H13.6923C13.7692 18 13.8397 17.968 13.9039 17.9039C13.968 17.8397 14 17.7692 14 17.6923V6.49998H9.50003Z" fill="white"/>
</svg>
