<svg width="20" height="16" viewBox="0 0 20 16" fill="none" xmlns="http://www.w3.org/2000/svg">
<path d="M8.60395 11.3461C8.95908 11.7012 9.41645 11.8698 9.97605 11.8519C10.5357 11.8339 10.9462 11.632 11.2078 11.2461L16.6347 3.38462L8.75395 8.7923C8.36165 9.05383 8.14979 9.45607 8.11837 9.99902C8.08697 10.542 8.24883 10.991 8.60395 11.3461ZM10.0001 0.5C10.9514 0.5 11.8427 0.624683 12.6741 0.87405C13.5055 1.1234 14.3084 1.50064 15.0828 2.00577L13.6732 2.9173C13.104 2.61473 12.5139 2.3862 11.903 2.2317C11.2921 2.07722 10.6578 1.99997 10.0001 1.99997C7.78343 1.99997 5.89593 2.77914 4.3376 4.33747C2.77926 5.89581 2.0001 7.78331 2.0001 9.99998C2.0001 10.7 2.09593 11.3916 2.2876 12.075C2.47926 12.7583 2.7501 13.4 3.1001 14H16.9001C17.2834 13.3666 17.5626 12.7083 17.7376 12.025C17.9126 11.3416 18.0001 10.6333 18.0001 9.89997C18.0001 9.29997 17.9261 8.6926 17.778 8.07785C17.6299 7.4631 17.4014 6.87944 17.0924 6.32687L18.0039 4.9173C18.4975 5.72628 18.8677 6.53557 19.1145 7.34517C19.3613 8.15479 19.4898 8.99613 19.5001 9.8692C19.5103 10.7743 19.4084 11.6298 19.1943 12.4355C18.9802 13.2413 18.6578 14.0295 18.227 14.8C18.0949 15.0166 17.9091 15.1875 17.6693 15.3125C17.4296 15.4375 17.1732 15.5 16.9001 15.5H3.1001C2.83343 15.5 2.58183 15.4358 2.3453 15.3076C2.10876 15.1794 1.91806 14.9974 1.7732 14.7615C1.39115 14.0948 1.08346 13.3679 0.850122 12.5808C0.616789 11.7936 0.500122 10.9333 0.500122 9.99998C0.500122 8.69357 0.747947 7.46548 1.2436 6.3157C1.73925 5.16592 2.41585 4.15887 3.2734 3.29455C4.13095 2.43023 5.13921 1.7484 6.2982 1.24905C7.45716 0.749683 8.69113 0.5 10.0001 0.5Z" fill="white"/>
</svg>
